<svg height="512" viewBox="0 0 256 256" width="512" xmlns="http://www.w3.org/2000/svg"><circle cx="71.314" cy="63.263" fill="#fcc24c" r="44.445" transform="matrix(.957 -.29 .29 .957 -15.273 23.38)"/><g fill="#690589"><path d="m71.315 109.709a46.446 46.446 0 1 1 46.445-46.446 46.5 46.5 0 0 1 -46.445 46.446zm0-88.892a42.446 42.446 0 1 0 42.445 42.446 42.494 42.494 0 0 0 -42.445-42.446z"/><path d="m71.315 20.817a2 2 0 0 1 -2-2v-13.712a2 2 0 0 1 4 0v13.712a2 2 0 0 1 -2 2z"/><path d="m71.315 123.421a2 2 0 0 1 -2-2v-13.712a2 2 0 0 1 4 0v13.712a2 2 0 0 1 -2 2z"/><path d="m129.472 65.263h-13.712a2 2 0 1 1 0-4h13.712a2 2 0 0 1 0 4z"/><path d="m26.869 65.263h-13.713a2 2 0 1 1 0-4h13.713a2 2 0 0 1 0 4z"/><path d="m39.887 33.835a1.99 1.99 0 0 1 -1.414-.586l-9.7-9.7a2 2 0 0 1 2.827-2.824l9.7 9.7a2 2 0 0 1 -1.414 3.414z"/><path d="m112.438 106.387a2 2 0 0 1 -1.415-.586l-9.695-9.7a2 2 0 0 1 2.828-2.828l9.7 9.7a2 2 0 0 1 -1.414 3.414z"/><path d="m102.742 33.835a2 2 0 0 1 -1.414-3.414l9.695-9.7a2 2 0 0 1 2.829 2.828l-9.7 9.7a1.99 1.99 0 0 1 -1.41.586z"/><path d="m30.19 106.387a2 2 0 0 1 -1.414-3.414l9.7-9.7a2 2 0 0 1 2.824 2.832l-9.7 9.7a2 2 0 0 1 -1.41.582z"/></g><path d="m250.909 140.489a48.785 48.785 0 0 0 -47.69-59.045c-1.411 0-2.8.073-4.184.191a72.988 72.988 0 0 0 -128.135-18.135 58.135 58.135 0 0 0 -66.9 57.418 57.959 57.959 0 0 0 3.389 19.571z" fill="#f4efed"/><path d="m72.132 62.831a58.522 58.522 0 0 1 8.808.664 72.914 72.914 0 0 1 54.26-30.307c-1.646-.111-3.3-.179-4.976-.179a72.869 72.869 0 0 0 -58.851 29.841c.254-.003.505-.019.759-.019z" fill="#fff"/><path d="m67.154 63.058c-1.671-.145-3.359-.227-5.067-.227a58.1 58.1 0 0 0 -54.7 77.658h10.046a58.1 58.1 0 0 1 49.721-77.431z" fill="#fff"/><path d="m203.219 81.444c-1.411 0-2.8.073-4.184.191a73.016 73.016 0 0 0 -68.815-48.626c-1.705 0-3.394.064-5.069.179a73.027 73.027 0 0 1 62.571 45.127 5.022 5.022 0 0 0 4.731 3.135q.36-.006.721-.006a48.785 48.785 0 0 1 47.69 59.045h10.045a48.785 48.785 0 0 0 -47.69-59.045z" fill="#d6d1cf"/><path d="m250.909 142.489h-243.52a2 2 0 0 1 -1.883-1.326 60.1 60.1 0 0 1 56.582-80.332 60.8 60.8 0 0 1 7.9.516 74.988 74.988 0 0 1 130.412 18.184c.982-.058 1.915-.087 2.823-.087a50.787 50.787 0 0 1 49.646 61.464 2 2 0 0 1 -1.96 1.581zm-242.094-4h240.449a46.78 46.78 0 0 0 -46.045-55.045c-1.251 0-2.565.06-4.014.183a1.993 1.993 0 0 1 -2.055-1.327 70.988 70.988 0 0 0 -124.629-17.638 1.993 1.993 0 0 1 -1.926.811 56.76 56.76 0 0 0 -8.507-.642 56.109 56.109 0 0 0 -53.273 73.658z" fill="#690589"/><path d="m14 122.344a2 2 0 0 1 -2-2 54.024 54.024 0 0 1 1.453-12.462 2 2 0 0 1 3.893.924 49.927 49.927 0 0 0 -1.346 11.538 2 2 0 0 1 -2 2z" fill="#690589"/><path d="m87.189 250.9a14.625 14.625 0 0 1 -12.665-21.936l12.665-21.935 12.664 21.935a14.624 14.624 0 0 1 -12.664 21.936z" fill="#f4efed"/><path d="m168.811 250.9a14.624 14.624 0 0 1 -12.664-21.936l12.664-21.935 12.665 21.935a14.625 14.625 0 0 1 -12.665 21.936z" fill="#f4efed"/><path d="m46.377 194.628a14.623 14.623 0 0 1 -12.664-21.935l12.664-21.935 12.664 21.935a14.623 14.623 0 0 1 -12.664 21.935z" fill="#f4efed"/><path d="m128 194.628a14.623 14.623 0 0 1 -12.664-21.935l12.664-21.935 12.664 21.935a14.623 14.623 0 0 1 -12.664 21.935z" fill="#f4efed"/><path d="m209.623 194.628a14.623 14.623 0 0 1 -12.664-21.935l12.664-21.935 12.664 21.935a14.623 14.623 0 0 1 -12.664 21.935z" fill="#f4efed"/><path d="m87.189 252.9a16.624 16.624 0 0 1 -14.4-24.936l12.664-21.935a2 2 0 0 1 3.465 0l12.664 21.935a16.624 16.624 0 0 1 -14.4 24.936zm0-41.871-10.932 18.93a12.623 12.623 0 1 0 21.863 0z" fill="#690589"/><path d="m168.811 252.9a16.624 16.624 0 0 1 -14.4-24.936l12.664-21.935a2 2 0 0 1 3.465 0l12.664 21.935a16.624 16.624 0 0 1 -14.4 24.936zm0-41.871-10.931 18.93a12.623 12.623 0 1 0 21.863 0z" fill="#690589"/><path d="m46.377 196.628a16.624 16.624 0 0 1 -14.4-24.935l12.665-21.935a2 2 0 0 1 3.464 0l12.664 21.935a16.623 16.623 0 0 1 -14.4 24.935zm0-41.87-10.932 18.935a12.624 12.624 0 1 0 21.864 0z" fill="#690589"/><path d="m128 196.628a16.624 16.624 0 0 1 -14.4-24.935l12.664-21.935a2 2 0 0 1 3.464 0l12.672 21.935a16.624 16.624 0 0 1 -14.4 24.935zm0-41.87-10.932 18.935a12.624 12.624 0 1 0 21.864 0z" fill="#690589"/><path d="m209.623 196.628a16.623 16.623 0 0 1 -14.4-24.935l12.664-21.935a2 2 0 0 1 3.464 0l12.665 21.935a16.624 16.624 0 0 1 -14.4 24.935zm0-41.87-10.932 18.935a12.623 12.623 0 1 0 21.864 0z" fill="#690589"/></svg>