<svg height="512" viewBox="0 0 256 256" width="512" xmlns="http://www.w3.org/2000/svg"><circle cx="128" cy="128" fill="#ffea92" r="65.551"/><path d="m128 178.424a50.424 50.424 0 1 1 35.655-14.769 50.093 50.093 0 0 1 -35.655 14.769z" fill="#eaa97d"/><rect fill="#ffea92" height="50.424" rx="7.564" transform="matrix(.707 .707 -.707 .707 99.053 -122.903)" width="15.127" x="190.32" y="32.904"/><rect fill="#ffea92" height="50.424" rx="7.564" transform="matrix(.707 .707 -.707 .707 156.947 16.864)" width="15.127" x="50.553" y="172.672"/><rect fill="#ffea92" height="50.424" rx="7.564" transform="matrix(-.707 .707 -.707 -.707 477.734 197.884)" width="15.127" x="190.32" y="172.672"/><rect fill="#ffea92" height="50.424" rx="7.564" transform="matrix(-.707 .707 -.707 -.707 140.305 58.116)" width="15.127" x="50.553" y="32.904"/><rect fill="#ffea92" height="40.339" rx="7.564" transform="matrix(-1 0 0 -1 256 453.661)" width="15.127" x="120.436" y="206.661"/><rect fill="#ffea92" height="40.339" rx="7.564" transform="matrix(-1 0 0 -1 256 58.339)" width="15.127" x="120.436" y="9"/><rect fill="#ffea92" height="40.339" rx="7.564" transform="matrix(0 -1 1 0 -98.831 157.169)" width="15.127" x="21.606" y="107.831"/><rect fill="#ffea92" height="40.339" rx="7.564" transform="matrix(0 -1 1 0 98.831 354.831)" width="15.127" x="219.267" y="107.831"/><g fill="#3762cc"><path d="m128 195.519a67.519 67.519 0 1 1 47.766-19.753 67.35 67.35 0 0 1 -47.766 19.753zm0-131.04a63.522 63.522 0 1 0 44.937 18.584 63.353 63.353 0 0 0 -44.937-18.584z"/><path d="m185.4 80.159a9.5 9.5 0 0 1 -6.761-2.8 9.561 9.561 0 0 1 0-13.525l24.961-24.959a9.563 9.563 0 1 1 13.525 13.525l-24.958 24.958a9.5 9.5 0 0 1 -6.767 2.801zm24.959-40.086a5.525 5.525 0 0 0 -3.934 1.63l-24.954 24.958a5.562 5.562 0 0 0 0 7.868 5.564 5.564 0 0 0 7.868 0l24.961-24.958a5.564 5.564 0 0 0 -3.934-9.5z"/><path d="m45.637 219.922a9.533 9.533 0 0 1 -6.762-2.8 9.574 9.574 0 0 1 0-13.524l24.958-24.959a9.564 9.564 0 1 1 13.525 13.525l-24.958 24.961a9.53 9.53 0 0 1 -6.763 2.797zm-3.937-5.622a5.569 5.569 0 0 0 7.868 0l24.962-24.961a5.564 5.564 0 1 0 -7.869-7.868l-24.961 24.958a5.57 5.57 0 0 0 0 7.868z"/><path d="m210.363 219.927a9.5 9.5 0 0 1 -6.762-2.8l-24.958-24.959a9.563 9.563 0 1 1 13.524-13.525l24.958 24.957a9.564 9.564 0 0 1 -6.762 16.326zm-24.963-40.086a5.522 5.522 0 0 0 -3.933 1.629 5.562 5.562 0 0 0 0 7.868l24.962 24.962a5.564 5.564 0 1 0 7.868-7.868l-24.958-24.962a5.527 5.527 0 0 0 -3.939-1.629z"/><path d="m70.6 80.155a9.532 9.532 0 0 1 -6.763-2.8l-24.962-24.955a9.574 9.574 0 0 1 0-13.524 9.574 9.574 0 0 1 13.524 0l24.959 24.957a9.56 9.56 0 0 1 -6.758 16.322zm-28.9-38.455a5.57 5.57 0 0 0 0 7.868l24.961 24.962a5.564 5.564 0 1 0 7.868-7.869l-24.958-24.961a5.568 5.568 0 0 0 -7.868 0z"/><path d="m128 249a9.574 9.574 0 0 1 -9.563-9.563v-25.212a9.563 9.563 0 1 1 19.126 0v25.212a9.574 9.574 0 0 1 -9.563 9.563zm0-40.339a5.569 5.569 0 0 0 -5.563 5.564v25.212a5.563 5.563 0 1 0 11.126 0v-25.212a5.57 5.57 0 0 0 -5.563-5.564z"/><path d="m128 51.339a9.574 9.574 0 0 1 -9.563-9.564v-25.212a9.563 9.563 0 1 1 19.126 0v25.212a9.574 9.574 0 0 1 -9.563 9.564zm0-40.339a5.569 5.569 0 0 0 -5.563 5.563v25.212a5.563 5.563 0 1 0 11.126 0v-25.212a5.57 5.57 0 0 0 -5.563-5.563z"/><path d="m41.775 137.563h-25.212a9.563 9.563 0 0 1 0-19.126h25.212a9.563 9.563 0 1 1 0 19.126zm-25.212-15.126a5.563 5.563 0 0 0 0 11.126h25.212a5.563 5.563 0 1 0 0-11.126z"/><path d="m239.437 137.563h-25.212a9.563 9.563 0 1 1 0-19.126h25.212a9.563 9.563 0 0 1 0 19.126zm-25.212-15.126a5.563 5.563 0 1 0 0 11.126h25.212a5.563 5.563 0 0 0 0-11.126z"/></g><path d="m116.73 129.493a3 3 0 0 1 -3-3 9.112 9.112 0 1 0 -18.224 0 3 3 0 0 1 -6 0 15.112 15.112 0 1 1 30.224 0 3 3 0 0 1 -3 3z" fill="#4671c6"/><path d="m163.494 129.493a3 3 0 0 1 -3-3 9.112 9.112 0 1 0 -18.224 0 3 3 0 1 1 -6 0 15.112 15.112 0 1 1 30.224 0 3 3 0 0 1 -3 3z" fill="#4671c6"/></svg>