<svg id="Layer_2" enable-background="new 0 0 64 64" height="512" viewBox="0 0 64 64" width="512" xmlns="http://www.w3.org/2000/svg"><path d="m45.091 14c-1.807 0-3.273-1.465-3.273-3.273 0-1.63 1.193-2.978 2.753-3.228.255-3.079 2.83-5.5 5.975-5.5 2.122 0 3.983 1.105 5.05 2.768.133-.02.266-.041.405-.041 1.124 0 2.089.681 2.506 1.653 1.956.166 3.493 1.803 3.493 3.803 0 2.109-1.709 3.818-3.818 3.818z" fill="#edeff1"/><path d="m48.31 34.345 6.69-3.345-6.69-3.345c-.448-.224-.564-.81-.236-1.188l2.876-3.316-4.378-.311c-.499-.035-.831-.532-.673-1.007l2.365-7.096-7.096 2.365c-.475.158-.972-.174-1.007-.673l-.311-4.378-3.316 2.876c-.378.328-.964.211-1.188-.236l-3.346-6.691-3.345 6.69c-.224.448-.81.564-1.188.236l-3.316-2.876-.311 4.378c-.035.499-.532.831-1.007.673l-7.096-2.365 2.365 7.096c.158.475-.174.972-.673 1.007l-4.378.311 2.876 3.316c.328.378.211.964-.236 1.188l-6.691 3.346 6.69 3.345c.448.224.564.81.236 1.188l-2.876 3.316 4.378.311c.499.035.831.532.673 1.007l-2.365 7.096 7.096-2.365c.475-.158.972.174 1.007.673l.311 4.378 3.316-2.876c.378-.328.964-.211 1.188.236l3.346 6.691 3.345-6.69c.224-.448.81-.564 1.188-.236l3.316 2.876.311-4.378c.035-.499.532-.831 1.007-.673l7.096 2.365-2.365-7.096c-.158-.475.174-.972.673-1.007l4.378-.311-2.876-3.316c-.328-.379-.211-.965.237-1.189z" fill="#ffe352"/><circle cx="32" cy="31" fill="#ffb236" r="13.8"/><path d="m2 39v23h46c-10.756-13.603-28.069-23-46-23z" fill="#98ca69"/><path d="m48 62c-4.563-5.77-10.313-10.771-16.782-14.631-3.932 4.003-7.087 8.722-9.085 13.913l-.276.718z" fill="#75aa40"/><path d="m24 62h38v-26c-16.603 0-32.373 11.38-38 26z" fill="#98ca69"/><path d="m5.273 21c-1.808 0-3.273-1.465-3.273-3.273 0-1.63 1.193-2.978 2.753-3.228.254-3.078 2.829-5.499 5.974-5.499 2.122 0 3.983 1.105 5.05 2.768.133-.02.266-.041.405-.041 1.124 0 2.089.681 2.506 1.653 1.957.165 3.494 1.802 3.494 3.802 0 2.109-1.709 3.818-3.818 3.818z" fill="#edeff1"/></svg>