<svg id="Layer_2" enable-background="new 0 0 64 64" height="512" viewBox="0 0 64 64" width="512" xmlns="http://www.w3.org/2000/svg"><path d="m36 40.761v-34.761c0-2.209-1.791-4-4-4s-4 1.791-4 4v34.761c-4.095 1.601-7 5.576-7 10.239 0 6.075 4.925 11 11 11s11-4.925 11-11c0-4.662-2.905-8.637-7-10.239z" fill="#edeff1"/><path d="m34 44.294v-29.294c0-1.105-.895-2-2-2s-2 .895-2 2v29.294c-2.891.861-5 3.536-5 6.706 0 3.866 3.134 7 7 7s7-3.134 7-7c0-3.171-2.109-5.845-5-6.706z" fill="#ffb0aa"/><g fill="#6e83b7"><path d="m40 28h4v2h-4z"/><path d="m40 22h4v2h-4z"/><path d="m40 34h4v2h-4z"/><path d="m40 16h4v2h-4z"/><path d="m40 10h4v2h-4z"/></g></svg>